<?xml version="1.0" encoding="utf-8"?>
<!-- Generator: Adobe Illustrator 25.2.1, SVG Export Plug-In . SVG Version: 6.00 Build 0)  -->
<svg version="1.1" id="Layer_1" xmlns="http://www.w3.org/2000/svg" xmlns:xlink="http://www.w3.org/1999/xlink" x="0px" y="0px"
	 viewBox="0 0 24 24" style="enable-background:new 0 0 24 24;" xml:space="preserve">
<style type="text/css">
	.st0{fill:#4285f4;}
	.st1{fill:#ea4335;}
</style>
<path class="st0" d="M17,7.9l-4.9,4.9L8.5,9.4l4.9-4.9L17,7.9z M12.8,2.3L6.4,8.7c-0.4,0.4-0.4,1,0,1.4l5,4.9c0.4,0.4,1,0.4,1.4,0
	l6.4-6.4c0.4-0.4,0.4-1,0-1.4l-5-4.9C13.8,1.9,13.1,1.9,12.8,2.3z"/>
<path class="st1" d="M18,13h-0.7l-2,2h1.9l1.8,2H5l1.8-2h2.1l-2-2H6l-3,3v4c0,1.1,0.9,2,2,2h14c1.1,0,2-0.9,2-2v-4L18,13z"/>
</svg>
