<?xml version="1.0" encoding="utf-8"?>
<!-- Generator: Adobe Illustrator 25.2.1, SVG Export Plug-In . SVG Version: 6.00 Build 0)  -->
<svg version="1.1" id="Layer_1" xmlns="http://www.w3.org/2000/svg" xmlns:xlink="http://www.w3.org/1999/xlink" x="0px" y="0px"
	 viewBox="48 48 304 304" style="enable-background:new 0 0 256 256;" xml:space="preserve">
<style type="text/css">
	.st0{fill:#EA4335;}
	.st1{fill:#FFFFFF;}
	.st2{fill:#4285F4;}

	#teks {
		transform-origin: 128px 128px;
		animation: berputar 20s linear infinite reverse;
	}

	@keyframes berputar {
		100% {
			transform: rotate(360deg);
		}
	}
</style>
<circle class="st0" cx="128" cy="128" r="128"/>
<circle class="st1" cx="128" cy="128" r="116"/>
<g id="teks">
	<path d="M112.4,218.8l-3.1,14l-4.9-1.1c-0.7-0.1-1.3-0.4-1.8-0.7s-1-0.8-1.3-1.2s-0.6-1-0.7-1.6s-0.1-1.2,0-1.9
		c0.1-0.7,0.4-1.2,0.8-1.7s0.8-0.9,1.3-1.2s1.1-0.5,1.7-0.6s1.3-0.1,1.9,0.1l2.3,0.5l1.1-5.1L112.4,218.8z M105.8,225.3
		c-0.7-0.1-1.3-0.1-1.7,0.2s-0.7,0.7-0.8,1.2c-0.1,0.2-0.1,0.5,0,0.8c0,0.2,0.1,0.5,0.3,0.7c0.1,0.2,0.3,0.4,0.6,0.6
		c0.2,0.2,0.5,0.3,0.9,0.4l2.3,0.5l0.9-3.8L105.8,225.3z"/>
	<path d="M94.4,229l-4.9-1.9c-0.7-0.3-1.2-0.6-1.7-1c-0.5-0.4-0.8-0.9-1.1-1.4c-0.2-0.5-0.4-1.1-0.4-1.7c0-0.6,0.1-1.2,0.3-1.8
		c0.2-0.4,0.4-0.8,0.7-1.2s0.6-0.6,1-0.8s0.8-0.4,1.2-0.5c0.4-0.1,0.9-0.2,1.3-0.1l0.1-0.1l-1.6-6.5l0.1-0.2l2.9,1.1l1.5,6.3
		l1.2,0.5l1.9-5l2.5,1L94.4,229z M91.8,221.1c-0.6-0.2-1.1-0.2-1.6,0c-0.5,0.2-0.9,0.6-1.1,1.1c-0.1,0.2-0.1,0.5-0.1,0.7
		c0,0.3,0,0.5,0.1,0.7c0.1,0.2,0.2,0.5,0.4,0.6c0.2,0.2,0.5,0.4,0.8,0.5l2.4,0.9l1.4-3.7L91.8,221.1z"/>
	<path d="M80.9,206.7c0.9,0.5,1.7,1.2,2.2,2c0.6,0.8,1,1.7,1.2,2.6c0.2,0.9,0.3,1.9,0.1,2.8c-0.1,1-0.5,1.9-1,2.8
		c-0.5,0.9-1.2,1.6-2,2.2c-0.8,0.6-1.7,1-2.6,1.2c-0.9,0.2-1.9,0.3-2.8,0.1c-1-0.1-1.9-0.5-2.8-1c-0.9-0.5-1.7-1.2-2.2-2
		c-0.6-0.8-1-1.7-1.2-2.6c-0.2-0.9-0.3-1.9-0.1-2.9s0.5-1.9,1-2.8s1.2-1.6,2-2.2c0.8-0.6,1.7-1,2.6-1.2s1.9-0.3,2.9-0.1
		C79.1,205.8,80,206.2,80.9,206.7z M79.6,208.9c-0.6-0.3-1.2-0.6-1.8-0.7c-0.6-0.1-1.2-0.1-1.8,0.1c-0.6,0.1-1.1,0.4-1.7,0.8
		c-0.5,0.4-1,0.9-1.4,1.5c-0.4,0.6-0.6,1.3-0.7,1.9c-0.1,0.6-0.1,1.3,0.1,1.9s0.4,1.1,0.8,1.6c0.4,0.5,0.8,0.9,1.4,1.3
		c0.6,0.3,1.2,0.6,1.8,0.7s1.2,0.1,1.8-0.1c0.6-0.1,1.1-0.4,1.7-0.8c0.5-0.4,1-0.9,1.4-1.5c0.4-0.6,0.6-1.3,0.7-1.9
		c0.1-0.6,0.1-1.3-0.1-1.9c-0.2-0.6-0.4-1.1-0.8-1.6C80.7,209.7,80.2,209.2,79.6,208.9z"/>
	<path d="M61.4,202.4l-5.2-4.7c0.1-0.1,0.2-0.3,0.3-0.5c0.1-0.2,0.3-0.4,0.4-0.5c0.6-0.7,1.3-1.2,2-1.7s1.6-0.7,2.4-0.8
		c0.9-0.1,1.9,0,2.8,0.4c0.9,0.3,1.8,0.9,2.7,1.6c0.8,0.7,1.4,1.5,1.8,2.4c0.4,0.9,0.7,1.8,0.8,2.8c0.1,0.9-0.1,1.9-0.4,2.8
		c-0.3,0.9-0.8,1.8-1.5,2.6c-0.7,0.8-1.5,1.4-2.4,1.8s-1.8,0.6-2.8,0.7c-0.9,0-1.9-0.1-2.8-0.4c-0.9-0.3-1.8-0.9-2.6-1.5
		c-0.9-0.8-1.5-1.6-1.9-2.5c-0.4-0.9-0.6-1.8-0.6-2.8l2.6-0.1c0,0.7,0.2,1.3,0.4,1.9c0.3,0.6,0.7,1.1,1.3,1.7c0.5,0.4,1,0.8,1.6,1
		s1.2,0.3,1.8,0.3c0.6,0,1.2-0.2,1.8-0.5s1.1-0.7,1.6-1.3c0.5-0.6,0.9-1.1,1.1-1.8s0.3-1.2,0.2-1.9c-0.1-0.6-0.2-1.2-0.5-1.8
		c-0.3-0.6-0.7-1.1-1.2-1.5c-0.6-0.5-1.1-0.9-1.7-1c-0.5-0.2-1.1-0.3-1.6-0.3c-0.4,0-0.7,0.1-1.1,0.2c-0.4,0.1-0.8,0.4-1.2,0.6
		l3.4,3L61.4,202.4z"/>
	<path d="M47.7,197.9l-3.2-4.1c-0.4-0.6-0.8-1.1-1-1.7c-0.2-0.6-0.3-1.2-0.2-1.8s0.2-1.1,0.5-1.6c0.3-0.5,0.7-1,1.2-1.4
		c0.4-0.3,0.8-0.5,1.2-0.6c0.4-0.1,0.9-0.2,1.3-0.2c0.4,0,0.9,0.1,1.3,0.2c0.4,0.1,0.8,0.3,1.2,0.5l0.1-0.1l1.9-6.4l0.1-0.1l1.9,2.4
		l-1.9,6.2l0.8,1l4.2-3.4l1.7,2.1L47.7,197.9z M49.6,189.8c-0.4-0.5-0.8-0.8-1.4-0.8c-0.5-0.1-1,0.1-1.5,0.4
		c-0.2,0.2-0.4,0.3-0.5,0.6s-0.2,0.5-0.3,0.7s0,0.5,0.1,0.8c0.1,0.3,0.2,0.5,0.4,0.8l1.6,2l3.1-2.5L49.6,189.8z"/>
	<path d="M35.9,181.2l-1.5-2.7l9.9-11.7l1.5,2.6l-2.4,2.7l2.7,4.8l3.6-0.6l1.5,2.6L35.9,181.2z M41.6,174.1l-2.5,2.9l-1.3,1.3
		l0.1,0.1l1.8-0.4l3.8-0.6L41.6,174.1z"/>
	<path d="M29.4,168.6l-0.8-2.5l5.8-6.6l-0.1-0.2l-8.6-1.7l-0.9-2.5l13.6-4.6l0.9,2.5l-6.7,2.2l-2.3,0.6l0.1,0.1l7.2,1.4l0.5,1.5
		l-4.9,5.5l0.1,0.1l2.2-0.9l6.7-2.2L43,164L29.4,168.6z"/>
	<path d="M36.7,140.1l-14.3,1.2l-0.4-5c-0.1-0.7,0-1.3,0.2-1.9c0.2-0.6,0.4-1.2,0.8-1.6c0.4-0.5,0.8-0.9,1.3-1.2
		c0.5-0.3,1.1-0.5,1.8-0.5c0.7-0.1,1.3,0,1.9,0.2c0.6,0.2,1.1,0.5,1.5,0.9c0.4,0.4,0.8,0.9,1.1,1.5c0.3,0.6,0.4,1.2,0.5,1.9l0.2,2.3
		l5.2-0.4L36.7,140.1z M28.5,135.7c-0.1-0.7-0.3-1.2-0.7-1.5c-0.4-0.3-0.9-0.5-1.4-0.4c-0.3,0-0.5,0.1-0.7,0.2
		c-0.2,0.1-0.4,0.3-0.6,0.5c-0.2,0.2-0.3,0.4-0.4,0.7c-0.1,0.3-0.1,0.6-0.1,0.9l0.2,2.4l3.9-0.3L28.5,135.7z"/>
	<path d="M24.3,123.3l3.3,0.2l0.3-5.7l2.6,0.2l-0.3,5.7l3.3,0.2l0.4-6.4l2.6,0.2l-0.5,9.1l-14.3-0.9l0.5-9.1l2.6,0.2L24.3,123.3z"/>
	<path d="M22.9,110.3l0.6-2.6l8.4-2.5l0-0.2l-6.4-6l0.6-2.6l13.9,3.3l-0.6,2.6l-6.9-1.6l-2.3-0.7l0,0.2l5.4,5l-0.4,1.6l-7.1,2.1
		l0,0.2l2.4,0.4l6.9,1.6l-0.6,2.6L22.9,110.3z"/>
	<path d="M28.5,90.2l2.2-5.1c0.2-0.6,0.6-1.1,1-1.5c0.4-0.4,0.8-0.7,1.3-1c0.5-0.2,1-0.4,1.5-0.4c0.5,0,1,0.1,1.5,0.3
		c0.7,0.3,1.2,0.7,1.5,1.3c0.3,0.5,0.5,1.1,0.5,1.7l0.1,0.1c0.5-0.6,1.2-0.9,1.9-1.1s1.4-0.1,2.2,0.2c0.6,0.2,1,0.6,1.4,1
		c0.3,0.4,0.6,0.9,0.7,1.4s0.2,1.1,0.1,1.7c-0.1,0.6-0.2,1.2-0.5,1.8l-2.3,5.3L28.5,90.2z M36,87.5c0.2-0.6,0.3-1.1,0.1-1.5
		c-0.2-0.4-0.5-0.8-0.9-0.9c-0.4-0.2-0.9-0.2-1.3,0c-0.4,0.2-0.8,0.5-1,1.1l-1.1,2.6l3.1,1.4L36,87.5z M41.6,89.7
		c0.3-0.6,0.3-1.2,0.2-1.6s-0.5-0.8-1-1c-0.5-0.2-1-0.2-1.4,0c-0.5,0.2-0.8,0.6-1.1,1.3l-1.2,2.7l3.4,1.5L41.6,89.7z"/>
	<path d="M39.1,74.5l2.8,1.8l3-4.9l2.2,1.4l-3,4.9l2.8,1.8l3.4-5.4l2.2,1.4L47.6,83l-12.1-7.6l4.8-7.7l2.2,1.4L39.1,74.5z"/>
	<path d="M43.9,62.8l3.4-4c0.5-0.5,1-1,1.5-1.3c0.6-0.3,1.1-0.5,1.7-0.5c0.6-0.1,1.1,0,1.7,0.2c0.6,0.2,1.1,0.5,1.6,0.9
		c0.4,0.3,0.7,0.7,0.9,1.1c0.2,0.4,0.4,0.8,0.4,1.2s0.1,0.9,0.1,1.3s-0.1,0.9-0.3,1.3l0.1,0.1l6.7,0.6l0.1,0.1l-2,2.4l-6.5-0.7
		l-0.8,1l4.1,3.5l-1.8,2.1L43.9,62.8z M52.2,63c0.4-0.5,0.6-1,0.6-1.5c0-0.5-0.3-1-0.7-1.4c-0.2-0.2-0.4-0.3-0.6-0.4
		s-0.5-0.1-0.7-0.1s-0.5,0.1-0.8,0.2s-0.5,0.3-0.7,0.6l-1.6,1.9l3,2.6L52.2,63z"/>
	<path d="M54.8,50.7l3.7-3.1c0.9-0.7,1.8-1.3,2.7-1.6s1.8-0.5,2.7-0.4c0.9,0.1,1.8,0.3,2.6,0.8c0.8,0.5,1.6,1.1,2.3,1.9
		c0.7,0.8,1.2,1.7,1.5,2.6s0.4,1.8,0.3,2.7c-0.1,0.9-0.4,1.8-0.8,2.6s-1.1,1.6-2,2.4l-3.7,3.1L54.8,50.7z M66,56.6
		c0.6-0.5,1.1-1,1.4-1.6c0.3-0.6,0.5-1.1,0.5-1.7c0-0.6,0-1.1-0.3-1.7c-0.2-0.6-0.5-1.1-1-1.6s-0.9-0.9-1.5-1.2
		c-0.5-0.3-1.1-0.5-1.6-0.5c-0.6,0-1.1,0-1.7,0.3c-0.6,0.2-1.2,0.6-1.8,1.1l-1.5,1.3l6,7L66,56.6z"/>
	<path d="M72.1,37.5l2.6-1.6l12,9.5L84.2,47l-2.8-2.3l-4.7,2.8l0.7,3.5l-2.6,1.5L72.1,37.5z M79.4,43l-2.9-2.4l-1.3-1.2l-0.1,0.1
		l0.4,1.8l0.7,3.7L79.4,43z"/>
	<path d="M89.2,37.2L81.8,32l3-1.2l4.4,3.3l0.1-0.1l0.7-5.4l3-1.2l-1.5,8.9l2.5,6.2l-2.5,1L89.2,37.2z"/>
	<path d="M100.8,25.2l3-0.7l8.7,12.6l-2.9,0.7l-2-3l-5.4,1.3l-0.3,3.6L99,40.4L100.8,25.2z M106.1,32.5l-2.1-3.2l-0.9-1.6l-0.2,0
		l-0.1,1.8l-0.4,3.8L106.1,32.5z"/>
	<path d="M118.6,22.1l3.1-0.2l6.4,13.9l-3,0.2l-1.4-3.3l-5.5,0.4l-0.9,3.5l-3,0.2L118.6,22.1z M122.7,30.2l-1.5-3.5l-0.6-1.7l-0.2,0
		l-0.4,1.8l-1,3.7L122.7,30.2z"/>
	<path d="M132.8,21.6l3.1,0.3l4.8,10.1l0.2,0l0.1-2.8l0.7-6.8l2.7,0.3L142.9,37l-2.8-0.3L135,26.1l-0.2,0l-0.1,2.8l-0.7,7.3
		l-2.6-0.3L132.8,21.6z"/>
	<path d="M157.7,41.2c-0.8-0.3-1.5-0.6-2-1.1c-0.6-0.5-1-1-1.3-1.7c-0.3-0.6-0.4-1.4-0.5-2.2c0-0.8,0.1-1.6,0.4-2.5l2.8-8.2l2.6,0.9
		l-2.8,8.3c-0.2,0.5-0.2,0.9-0.3,1.3s0,0.8,0.2,1.2c0.1,0.4,0.3,0.7,0.6,0.9c0.3,0.3,0.6,0.5,1.1,0.6c0.5,0.2,0.9,0.2,1.3,0.2
		c0.4,0,0.8-0.2,1.1-0.4c0.3-0.2,0.6-0.5,0.9-0.8s0.4-0.7,0.6-1.2l2.8-8.3l2.6,0.9l-2.8,8.2c-0.3,0.8-0.7,1.6-1.2,2.2
		c-0.5,0.6-1,1.1-1.7,1.4c-0.6,0.3-1.3,0.5-2.1,0.6C159.2,41.6,158.5,41.5,157.7,41.2z"/>
	<path d="M173.7,31.7l2.3,1.3l0.1,8.8l0.1,0.1l7.5-4.5l2.3,1.3l-7,12.5l-2.3-1.3l3.5-6.2l1.3-2l-0.1-0.1l-6.3,3.8l-1.4-0.8l-0.1-7.4
		l-0.1-0.1l-1,2.2l-3.5,6.2l-2.3-1.3L173.7,31.7z"/>
	<path d="M195,45.4l2.4,2l-5.1,14.4l-2.3-1.9l1.3-3.4L187,53l-3.1,1.9l-2.3-1.9L195,45.4z M192.2,54l1.3-3.6l0.7-1.7l-0.1-0.1
		l-1.5,1l-3.3,1.9L192.2,54z"/>
	<path d="M195.6,65.6l8.8-7.9l-2.7-3l1.9-1.7l7.1,8l-1.9,1.7l-2.7-3l-8.8,7.9L195.6,65.6z"/>
	<path d="M218.2,71.4l2.8,4.9c0.3,0.5,0.5,1.1,0.6,1.6s0.1,1.1,0,1.6c-0.1,0.5-0.3,1-0.6,1.4c-0.3,0.4-0.6,0.8-1.1,1
		c-0.7,0.4-1.3,0.5-1.9,0.5c-0.6-0.1-1.2-0.3-1.7-0.6l-0.1,0.1c0.1,0.8,0.1,1.5-0.2,2.2s-0.8,1.2-1.5,1.6c-0.5,0.3-1.1,0.5-1.6,0.5
		c-0.5,0-1.1-0.1-1.6-0.3c-0.5-0.2-1-0.5-1.4-0.9c-0.4-0.4-0.8-0.9-1.1-1.5l-2.9-5L218.2,71.4z M210.7,82.2c0.3,0.6,0.7,1,1.2,1.1
		c0.5,0.1,0.9,0.1,1.4-0.2c0.5-0.3,0.8-0.6,0.9-1.1c0.1-0.5,0-1.1-0.3-1.7l-1.4-2.5l-3.2,1.8L210.7,82.2z M215.7,79
		c0.3,0.5,0.7,0.9,1.2,1c0.5,0.1,0.9,0.1,1.3-0.2s0.7-0.6,0.8-1c0.1-0.5,0-0.9-0.2-1.4l-1.4-2.4l-3,1.7L215.7,79z"/>
	<path d="M224.3,89.3l-3.1,1.2l2.1,5.4l-2.4,0.9l-2.1-5.4l-3.1,1.2l2.3,6l-2.4,0.9l-3.2-8.5l13.4-5.1l3.3,8.5l-2.4,0.9L224.3,89.3z"
		/>
	<path d="M230.7,100l1.1,5.1c0.2,0.7,0.2,1.4,0.1,2c-0.1,0.6-0.3,1.2-0.6,1.7c-0.3,0.5-0.7,0.9-1.2,1.3c-0.5,0.3-1.1,0.6-1.7,0.7
		c-0.5,0.1-0.9,0.1-1.4,0.1c-0.4-0.1-0.9-0.2-1.3-0.4c-0.4-0.2-0.8-0.4-1.1-0.8s-0.6-0.6-0.9-1l-0.1,0l-4.5,5l-0.2,0l-0.7-3l4.4-4.8
		l-0.3-1.2l-5.2,1.2l-0.6-2.6L230.7,100z M225.5,106.5c0.1,0.6,0.4,1.1,0.9,1.4c0.5,0.3,1,0.4,1.5,0.3c0.2-0.1,0.5-0.2,0.7-0.3
		c0.2-0.1,0.4-0.3,0.5-0.5c0.1-0.2,0.2-0.5,0.3-0.7c0-0.3,0-0.6,0-0.9l-0.6-2.5l-3.9,0.9L225.5,106.5z"/>
	<path d="M233.8,116l0.2,2.7l-6.1,0.4l0,0.2l6.5,4.8l0.2,3.3l-0.2,0l-6.2-4.8l-7.7,6.2l-0.2,0l-0.2-3.3l5.8-4.6l-2-1.5l-4.2,0.3
		l-0.2-2.7L233.8,116z"/>
	<path d="M231.5,135.5l-3.3-0.3l-0.5,5.7l-2.5-0.2l0.5-5.7l-3.3-0.3l-0.6,6.4l-2.5-0.2l0.8-9l14.3,1.2l-0.8,9l-2.6-0.2L231.5,135.5z
		"/>
	<path d="M232.5,147.9l-0.6,2.6l-11.5-2.6l-1.3,5.9l-2.5-0.6l1.9-8.5L232.5,147.9z"/>
	<path d="M227.4,165.9l-1.1,2.9l-15.3-0.3l1.1-2.8l3.6,0.2l2-5.1l-2.7-2.4l1.1-2.8L227.4,165.9z M218.3,165.9l3.8,0.1l1.8,0.2
		l0.1-0.1l-1.4-1.1l-2.9-2.5L218.3,165.9z"/>
	<path d="M221.6,178.8l-1.6,2.7l-11.2-0.1l-0.1,0.1l2.4,1.3l5.8,3.6l-1.4,2.3l-12.2-7.5l1.5-2.4l11.8,0.1l0.1-0.1l-2.4-1.3l-6.3-3.9
		l1.4-2.3L221.6,178.8z"/>
	<path d="M198.1,187.1c0.7-0.9,1.6-1.4,2.6-1.7s2-0.1,3.1,0.3l-0.8,2.6c-0.6-0.3-1.1-0.4-1.6-0.3s-0.9,0.3-1.3,0.8
		c-0.4,0.5-0.6,1-0.5,1.5s0.4,1,0.9,1.5l7.5,6.4l-1.8,2.1l-7.4-6.3c-0.6-0.5-1.1-1.1-1.4-1.6c-0.3-0.6-0.5-1.2-0.5-1.8
		s0-1.2,0.3-1.7C197.3,188.2,197.7,187.6,198.1,187.1z"/>
	<path d="M188.2,197.1c0.6-0.6,1.3-1,2-1.2c0.7-0.2,1.4-0.3,2.1-0.2c0.7,0.1,1.4,0.3,2.1,0.7s1.3,0.9,2,1.6l5.7,6.5l-2,1.8l-5.8-6.6
		c-0.3-0.4-0.6-0.7-1-0.9c-0.4-0.2-0.7-0.4-1.1-0.4c-0.4-0.1-0.8,0-1.1,0.1c-0.4,0.1-0.7,0.3-1.1,0.6c-0.4,0.3-0.6,0.7-0.8,1
		c-0.2,0.4-0.2,0.7-0.2,1.1c0,0.4,0.1,0.8,0.3,1.1s0.4,0.8,0.7,1.1l5.8,6.6l-2,1.8l-5.7-6.5c-0.6-0.7-1-1.4-1.3-2.1
		s-0.4-1.5-0.4-2.2c0-0.7,0.2-1.4,0.5-2.1C187.1,198.3,187.6,197.7,188.2,197.1z"/>
	<path d="M178.3,205.1l6.3,9.9l3.4-2.1l1.4,2.2l-9,5.7l-1.4-2.2l3.4-2.1l-6.3-9.9L178.3,205.1z"/>
	<path d="M172.7,224.5l-2.8,1.3l-10.8-10.9l2.7-1.2l2.5,2.6l5-2.2l-0.3-3.6l2.7-1.2L172.7,224.5z M166.2,218.2l2.6,2.8l1.2,1.4
		l0.1-0.1l-0.2-1.8l-0.3-3.8L166.2,218.2z"/>
	<path d="M159.5,229.7l-3,0.8l-7.9-7.9l-0.2,0l0.8,2.6l1.7,6.6l-2.6,0.6l-3.5-13.9l2.8-0.7l8.4,8.4l0.1,0l-0.8-2.6l-1.8-7.2l2.6-0.6
		L159.5,229.7z"/>
</g>
<g>
	<path class="st2" d="M176,94v10.6c-1.2,0.7-2,1.9-2,3.4c0,1.6,1,3,2.3,3.6H176l-4,8.4c3.2,3.2,8.8,3.2,12,0l-4-8.4h-0.3
		c1.4-0.6,2.3-2,2.3-3.6c0-1.5-0.8-2.7-2-3.4V92.5l12-4.5l-64-24L64,88l64,24L176,94z"/>
	<path class="st2" d="M96,108v12c17.6,17.6,46.4,17.6,64,0v-12l-32,12L96,108z"/>
	<path class="st2" d="M128,144l-3.4-1.7C105.8,132.9,85,128,64,128l8,48l10.3,1.5c11.8,1.7,23.3,4.9,34.2,9.6L128,192l11.5-4.9
		c10.9-4.7,22.4-7.9,34.2-9.6L184,176l8-48c-21,0-41.8,4.9-60.6,14.3L128,144z M111.8,164.5h-2.5v-5h2.5c0.7,0,1.2-0.6,1.2-1.2
		s-0.6-1.2-1.2-1.2h-2.5c-0.7,0-1.2,0.6-1.2,1.2V172h-5v-13.8c0-3.5,2.8-6.2,6.2-6.2h2.5c3.5,0,6.2,2.8,6.2,6.2
		S115.2,164.5,111.8,164.5z M138,158.2c0-3.5,2.8-6.2,6.2-6.2h2.5c3.5,0,6.2,2.8,6.2,6.2c0,1.4-0.5,2.7-1.3,3.8
		c0.8,1,1.3,2.3,1.3,3.8c0,3.5-2.8,6.2-6.2,6.2h-2.5v-5h2.5c0.7,0,1.2-0.6,1.2-1.2s-0.6-1.2-1.2-1.2h-2.5v-5h2.5
		c0.7,0,1.2-0.6,1.2-1.2s-0.6-1.2-1.2-1.2h-2.5c-0.7,0-1.2,0.6-1.2,1.2V172h-5V158.2z M135.5,165.8c0,3.5-2.8,6.2-6.2,6.2h-2.5
		c-3.5,0-6.2-2.8-6.2-6.2V152h5v13.8c0,0.7,0.6,1.2,1.2,1.2h2.5c0.7,0,1.2-0.6,1.2-1.2V152h5V165.8z"/>
</g>
</svg>
