<?xml version="1.0" encoding="utf-8"?>
<!-- Generator: Adobe Illustrator 25.2.1, SVG Export Plug-In . SVG Version: 6.00 Build 0)  -->
<svg version="1.1" id="Layer_1" xmlns="http://www.w3.org/2000/svg" xmlns:xlink="http://www.w3.org/1999/xlink" x="0px" y="0px"
	 viewBox="0 0 64 64" style="enable-background:new 0 0 64 64;" xml:space="preserve">
<style type="text/css">
	.st0{fill:#EA4335;}
	.st1{fill:#FFFFFF;}
	.st2{fill:#4285F4;}

	#teks {
		transform-origin: center;
		animation: berputar 20s linear infinite reverse;
	}

	@keyframes berputar {
		100% {
			transform: rotate(360deg);
		}
	}
</style>
<g>
	<circle class="st0" cx="32" cy="32" r="32"/>
</g>
<g>
	<circle class="st1" cx="32" cy="32" r="29"/>
</g>
<g id="teks">
	<path d="M24.2,55.2l0.5-1.4l0.4,0.2l-1.2,3.4l-1.1-0.4c-0.3-0.1-0.5-0.3-0.6-0.6c-0.1-0.3-0.2-0.5-0.1-0.8c0.1-0.3,0.3-0.5,0.6-0.6
		c0.3-0.1,0.6-0.1,0.8,0L24.2,55.2z M23.6,56.8l0.4-1.2l-0.7-0.3c-0.2-0.1-0.3-0.1-0.5,0c-0.2,0.1-0.3,0.2-0.3,0.3
		c-0.1,0.2,0,0.3,0,0.5c0.1,0.2,0.2,0.3,0.4,0.3L23.6,56.8z"/>
	<path d="M21.7,52.6l0.4,0.2L20.4,56l-1.1-0.6c-0.3-0.1-0.5-0.4-0.6-0.6s-0.1-0.6,0.1-0.8c0.1-0.2,0.3-0.4,0.5-0.5
		c0.2-0.1,0.5-0.1,0.7,0l0,0l-0.2-1.8l0,0l0.5,0.3l0.2,1.7l0.4,0.2L21.7,52.6z M20.2,55.4l0.6-1.1l-0.7-0.3
		c-0.2-0.1-0.3-0.1-0.5-0.1c-0.2,0-0.3,0.1-0.4,0.3c-0.1,0.1-0.1,0.3,0,0.5c0,0.2,0.2,0.3,0.3,0.4L20.2,55.4z"/>
	<path d="M15.4,50.5c0.3-0.4,0.7-0.7,1.2-0.7c0.5-0.1,1,0.1,1.4,0.4c0.4,0.3,0.6,0.7,0.7,1.2c0.1,0.5-0.1,1-0.4,1.4
		c-0.3,0.4-0.7,0.7-1.2,0.7c-0.5,0.1-1-0.1-1.4-0.4c-0.4-0.3-0.6-0.7-0.7-1.2C15,51.4,15.1,50.9,15.4,50.5z M18,52.5
		c0.3-0.3,0.4-0.7,0.3-1.1c0-0.4-0.2-0.7-0.5-0.9s-0.6-0.3-1-0.3c-0.4,0.1-0.7,0.2-0.9,0.6c-0.3,0.3-0.4,0.7-0.3,1.1
		c0,0.4,0.2,0.7,0.5,0.9s0.7,0.3,1,0.3C17.4,53,17.7,52.8,18,52.5z"/>
	<path d="M12.4,47c0.4-0.3,0.8-0.5,1.2-0.5c0.5,0,0.9,0.2,1.3,0.6c0.3,0.4,0.5,0.8,0.5,1.3c0,0.5-0.2,0.9-0.6,1.3
		c-0.4,0.3-0.8,0.5-1.4,0.5c-0.5,0-0.9-0.2-1.3-0.6c-0.2-0.2-0.3-0.4-0.4-0.7s-0.1-0.5-0.1-0.7l0.5,0c0,0.2,0,0.3,0.1,0.5
		c0.1,0.2,0.2,0.3,0.3,0.5c0.3,0.3,0.6,0.4,1,0.5c0.4,0,0.7-0.1,1-0.4c0.3-0.3,0.5-0.6,0.5-1c0-0.4-0.1-0.7-0.4-1
		C14.3,47.2,14,47,13.7,47c-0.3,0-0.6,0-0.9,0.2l0.9,1l-0.3,0.3l-1.2-1.3C12.2,47.1,12.3,47.1,12.4,47z"/>
	<path d="M12.8,44.8l0.2,0.4l-3,1.9l-0.6-1c-0.2-0.3-0.2-0.5-0.2-0.8c0.1-0.3,0.2-0.5,0.5-0.7c0.2-0.1,0.4-0.2,0.7-0.1
		c0.2,0,0.5,0.1,0.6,0.3h0l0.7-1.6l0,0l0.3,0.5l-0.7,1.6l0.3,0.4L12.8,44.8z M10.2,46.4l1.1-0.7l-0.4-0.6c-0.1-0.2-0.2-0.3-0.4-0.3
		c-0.2,0-0.3,0-0.5,0.1c-0.1,0.1-0.2,0.2-0.3,0.4s0,0.3,0.1,0.5L10.2,46.4z"/>
	<path d="M11.3,42.2l0.2,0.5l-3.8,0.2l-0.2-0.5l2.7-2.7l0.2,0.5l-0.8,0.7l0.6,1.4L11.3,42.2z M8.1,42.4l1.7-0.1l-0.5-1.1L8.1,42.4
		L8.1,42.4z"/>
	<path d="M9.9,38.5l0.1,0.4l-3.5,0.8l-0.1-0.4l1.8-1.7l0,0l-2.4-0.7l-0.1-0.4l3.5-0.8L9.3,36l-2.1,0.5l-0.6,0.1l0,0l2.2,0.6l0.1,0.3
		l-1.7,1.5l0,0l0.6-0.2L9.9,38.5z"/>
	<path d="M7.5,32.5l1.5,0l0,0.5l-3.6-0.1l0-1.2c0-0.3,0.1-0.6,0.3-0.8c0.2-0.2,0.5-0.3,0.8-0.3c0.3,0,0.6,0.1,0.8,0.3
		c0.2,0.2,0.3,0.5,0.3,0.8L7.5,32.5z M5.9,32.4l1.2,0l0-0.8c0-0.2-0.1-0.3-0.2-0.5C6.8,31.1,6.7,31,6.5,31c-0.2,0-0.3,0.1-0.4,0.2
		c-0.1,0.1-0.2,0.3-0.2,0.5L5.9,32.4z"/>
	<path d="M5.8,27.1l0.4,0.1l-0.2,1.6L7.2,29l0.2-1.5l0.4,0.1L7.6,29l1.1,0.2L9,27.6l0.4,0.1l-0.3,2.1l-3.5-0.5L5.8,27.1z"/>
	<path d="M9.7,26.2l-0.1,0.4l-3.4-1.1l0.1-0.4l2.5-0.5l0,0L7,22.7l0.1-0.4l3.4,1.1l-0.1,0.4l-2-0.6L7.9,23l0,0l1.5,1.7l-0.1,0.3
		l-2.2,0.5l0,0l0.6,0.2L9.7,26.2z"/>
	<path d="M11.1,22.4l-3.2-1.7l0.6-1.1c0.1-0.3,0.3-0.4,0.6-0.5C9.3,19,9.6,19,9.8,19.1c0.3,0.2,0.5,0.4,0.4,0.8l0,0
		c0.1-0.1,0.3-0.2,0.5-0.2c0.2,0,0.4,0,0.5,0.1c0.3,0.1,0.4,0.3,0.5,0.6c0.1,0.3,0,0.5-0.1,0.8L11.1,22.4z M8.5,20.5l1,0.5l0.4-0.7
		c0.1-0.1,0.1-0.3,0-0.4c0-0.1-0.1-0.3-0.3-0.3c-0.1-0.1-0.3-0.1-0.4,0c-0.1,0-0.3,0.1-0.3,0.3L8.5,20.5z M9.8,21.3l1,0.5l0.4-0.8
		c0.1-0.1,0.1-0.3,0-0.5c-0.1-0.2-0.1-0.3-0.3-0.3c-0.1-0.1-0.3-0.1-0.4,0s-0.3,0.2-0.4,0.3L9.8,21.3z"/>
	<path d="M11,15.7l0.4,0.3l-0.9,1.3l0.9,0.7l0.9-1.2l0.4,0.2l-0.9,1.2l0.9,0.7l0.9-1.3l0.4,0.3l-1.2,1.7l-2.9-2.1L11,15.7z"/>
	<path d="M14.9,16.7L14.5,17l-2.6-2.5l0.8-0.9c0.2-0.2,0.5-0.3,0.8-0.4c0.3,0,0.6,0.1,0.8,0.3c0.2,0.2,0.3,0.4,0.3,0.6
		c0,0.2,0,0.5-0.2,0.7l0,0l1.7,0.3l0,0l-0.4,0.4l-1.7-0.3l-0.4,0.4L14.9,16.7z M12.6,14.5l0.9,0.9l0.5-0.5c0.1-0.1,0.2-0.3,0.2-0.5
		S14.1,14,14,13.9c-0.1-0.1-0.3-0.2-0.4-0.2c-0.2,0-0.3,0.1-0.5,0.2L12.6,14.5z"/>
	<path d="M16.8,14.7l-2.2-2.8l0.9-0.7c0.4-0.3,0.9-0.5,1.3-0.4c0.5,0.1,0.9,0.3,1.2,0.7c0.3,0.4,0.5,0.9,0.4,1.3
		c-0.1,0.5-0.3,0.9-0.7,1.2L16.8,14.7z M15.3,11.9l1.7,2.1l0.5-0.4c0.3-0.3,0.5-0.6,0.6-0.9c0-0.3-0.1-0.7-0.3-1
		c-0.3-0.3-0.6-0.5-0.9-0.6c-0.3,0-0.7,0.1-1,0.3L15.3,11.9z"/>
	<path d="M20,12.4l-0.4,0.2L19,8.8l0.5-0.3l2.9,2.5l-0.4,0.2l-0.8-0.7l-1.3,0.7L20,12.4z M19.5,9.2l0.3,1.7l1-0.6L19.5,9.2L19.5,9.2
		z"/>
	<path d="M23.5,8.9l0.6,1.6l-0.4,0.2L23,9l-1.8-1.4l0.5-0.2l1.3,1l0,0l0.3-1.7l0.5-0.2L23.5,8.9z"/>
	<path d="M25.7,9.8L25.2,10l0.5-3.8L26.3,6l2.1,3.2l-0.5,0.1l-0.6-0.9l-1.5,0.3L25.7,9.8z M26.1,6.7l-0.2,1.7l1.2-0.3L26.1,6.7
		L26.1,6.7z"/>
	<path d="M29.4,9.1l-0.5,0L30,5.5l0.5,0l1.6,3.5l-0.5,0L31.2,8l-1.5,0.1L29.4,9.1z M30.3,6l-0.5,1.6L31,7.6L30.3,6L30.3,6z"/>
	<path d="M33.4,9l-0.5,0l0.3-3.6l0.6,0.1l1.5,2.9l0,0l0-0.7l0.2-2.1l0.5,0l-0.3,3.6l-0.5,0l-1.5-3.1l0,0l0,0.7L33.4,9z"/>
	<path d="M39.3,10.3c-0.4-0.1-0.6-0.4-0.8-0.7c-0.2-0.3-0.2-0.7,0-1.1l0.7-2.1l0.4,0.1l-0.7,2.2c-0.1,0.3-0.1,0.5,0,0.7
		s0.3,0.4,0.5,0.4c0.3,0.1,0.5,0.1,0.7,0c0.2-0.1,0.3-0.3,0.4-0.6l0.7-2.2l0.4,0.1L41,9.3c-0.1,0.4-0.4,0.7-0.7,0.9
		C40,10.4,39.7,10.4,39.3,10.3z"/>
	<path d="M41.9,11.2L41.5,11l1.7-3.1l0.4,0.2l0,2.5l0,0l2.1-1.3l0.4,0.2l-1.7,3.1l-0.4-0.2l1-1.9l0.3-0.5l0,0l-1.9,1.2l-0.2-0.1
		l0-2.3l0,0l-0.3,0.5L41.9,11.2z"/>
	<path d="M45.6,13.4l-0.4-0.3l3.3-1.9l0.4,0.3l-1.2,3.6l-0.4-0.3l0.3-1l-1.2-0.9L45.6,13.4z M48.3,11.7l-1.5,0.9l0.9,0.7L48.3,11.7
		L48.3,11.7z"/>
	<path d="M51.1,14.2l-2.3,2.2L48.5,16l2.3-2.2l-0.7-0.7l0.3-0.3l1.7,1.8l-0.3,0.3L51.1,14.2z"/>
	<path d="M51,19l3-1.9l0.7,1.1c0.1,0.2,0.2,0.5,0.1,0.8c0,0.3-0.2,0.5-0.4,0.6c-0.3,0.2-0.6,0.2-0.9,0l0,0c0,0.2,0,0.4,0,0.5
		c-0.1,0.2-0.2,0.3-0.3,0.4c-0.2,0.2-0.5,0.2-0.8,0.1c-0.3-0.1-0.5-0.2-0.6-0.5L51,19z M52.6,18.5l-1,0.6l0.5,0.8
		c0.1,0.1,0.2,0.2,0.4,0.3c0.2,0,0.3,0,0.4-0.1c0.1-0.1,0.2-0.2,0.3-0.4c0-0.2,0-0.3-0.1-0.5L52.6,18.5z M53.9,17.7L53,18.3l0.4,0.7
		c0.1,0.1,0.2,0.2,0.4,0.3c0.2,0,0.3,0,0.4-0.1c0.1-0.1,0.2-0.2,0.2-0.3c0-0.1,0-0.3-0.1-0.4L53.9,17.7z"/>
	<path d="M56.8,22.4l-0.4,0.2L55.7,21l-1,0.5l0.6,1.3L54.9,23l-0.6-1.3l-1,0.5l0.7,1.5l-0.4,0.2l-0.8-1.9l3.3-1.4L56.8,22.4z"/>
	<path d="M54,25.2l-0.1-0.4l3.4-1l0.3,1.2c0.1,0.3,0.1,0.6-0.1,0.8c-0.1,0.3-0.4,0.4-0.6,0.5c-0.2,0.1-0.5,0-0.7-0.1
		c-0.2-0.1-0.4-0.3-0.5-0.5l0,0l-1.1,1.4l0,0l-0.1-0.5l1.1-1.3l-0.1-0.5L54,25.2z M57,24.3l-1.2,0.3l0.2,0.7c0,0.2,0.2,0.3,0.3,0.4
		c0.2,0.1,0.3,0.1,0.5,0.1c0.2,0,0.3-0.1,0.4-0.3c0.1-0.2,0.1-0.3,0.1-0.5L57,24.3z"/>
	<path d="M58.5,29.6l0.1,0.6l0,0L56.9,29L55,30.7l0,0l-0.1-0.6l1.5-1.4l-0.7-0.5l-1,0.1L54.7,28l3.6-0.4l0.1,0.5l-1.8,0.2l0,0
		L58.5,29.6z"/>
	<path d="M58.6,33.5l-0.4,0l0-1.6l-1.1,0l0,1.5l-0.4,0l0-1.5l-1.1,0l0,1.6l-0.4,0l0-2.1l3.6,0.1L58.6,33.5z"/>
	<path d="M54.6,36.5l0.3-2l3.5,0.5l-0.1,0.5L55.3,35L55,36.5L54.6,36.5z"/>
	<path d="M54.3,37.6l0.1-0.5l3,2.3l-0.1,0.5l-3.8,0.3l0.1-0.5l1-0.1l0.4-1.4L54.3,37.6z M56.9,39.5l-1.4-1l-0.3,1.1L56.9,39.5
		L56.9,39.5z"/>
	<path d="M53.1,41.3l0.2-0.4l3.2,1.6l-0.2,0.5L53,43.3l0,0l0.6,0.3l1.9,0.9l-0.2,0.4l-3.2-1.6l0.2-0.4l3.4-0.4l0,0l-0.6-0.3
		L53.1,41.3z"/>
	<path d="M50.9,45c0.2-0.2,0.3-0.4,0.6-0.4s0.5-0.1,0.7,0L52.1,45c-0.4-0.1-0.7,0-0.9,0.2c-0.1,0.2-0.1,0.3-0.1,0.5
		c0,0.2,0.2,0.3,0.3,0.4l2.1,1.4L53.3,48l-2-1.4c-0.3-0.2-0.5-0.5-0.5-0.7C50.6,45.5,50.7,45.3,50.9,45z"/>
	<path d="M48.8,47.6c0.3-0.3,0.6-0.4,0.9-0.4c0.4,0,0.7,0.1,1,0.4l1.6,1.5L52,49.5l-1.7-1.5c-0.2-0.2-0.4-0.3-0.7-0.3
		s-0.4,0.1-0.6,0.3s-0.3,0.4-0.2,0.6s0.1,0.4,0.4,0.6l1.7,1.5l-0.3,0.3l-1.6-1.5c-0.3-0.3-0.5-0.6-0.5-1
		C48.4,48.2,48.5,47.9,48.8,47.6z"/>
	<path d="M48.2,52.5l-2-2.4l0.4-0.3l2,2.4l0.8-0.6l0.3,0.3l-1.9,1.5l-0.3-0.3L48.2,52.5z"/>
	<path d="M44.8,51.1l0.4-0.3l0.7,3.8l-0.4,0.3l-3-2.4l0.4-0.3l0.8,0.7l1.3-0.8L44.8,51.1z M45.4,54.3l-0.3-1.7l-1,0.6L45.4,54.3
		L45.4,54.3z"/>
	<path d="M41.4,53l0.4-0.2l1.3,3.3l-0.5,0.2l-2.6-1.9l0,0l0.3,0.6L41,57l-0.4,0.2l-1.3-3.3l0.4-0.2l2.8,2l0,0l-0.3-0.6L41.4,53z"/>
</g>
<g>
	<g>
		<path class="st2" d="M44,23.5v2.7c-0.3,0.2-0.5,0.5-0.5,0.8c0,0.4,0.2,0.7,0.6,0.9H44L43,30c0.8,0.8,2.2,0.8,3,0l-1-2.1h-0.1
			c0.3-0.2,0.6-0.5,0.6-0.9c0-0.4-0.2-0.7-0.5-0.8v-3l3-1.1l-16-6l-16,6l16,6L44,23.5z"/>
	</g>
	<g>
		<path class="st2" d="M24,27v3c4.4,4.4,11.6,4.4,16,0v-3l-8,3L24,27z"/>
	</g>
	<g>
		<path class="st2" d="M32,36l-0.8-0.4C26.4,33.2,21.3,32,16,32l2,12l2.6,0.4c2.9,0.4,5.8,1.2,8.6,2.4L32,48l2.9-1.2
			c2.7-1.2,5.6-2,8.6-2.4L46,44l2-12c-5.3,0-10.4,1.2-15.2,3.6L32,36z M27.9,41.1h-0.6v-1.2h0.6c0.2,0,0.3-0.1,0.3-0.3
			s-0.1-0.3-0.3-0.3h-0.6c-0.2,0-0.3,0.1-0.3,0.3V43h-1.2v-3.4c0-0.9,0.7-1.6,1.6-1.6h0.6c0.9,0,1.6,0.7,1.6,1.6
			S28.8,41.1,27.9,41.1z M34.5,39.6c0-0.9,0.7-1.6,1.6-1.6h0.6c0.9,0,1.6,0.7,1.6,1.6c0,0.4-0.1,0.7-0.3,0.9
			c0.2,0.3,0.3,0.6,0.3,0.9c0,0.9-0.7,1.6-1.6,1.6h-0.6v-1.2h0.6c0.2,0,0.3-0.1,0.3-0.3s-0.1-0.3-0.3-0.3h-0.6v-1.2h0.6
			c0.2,0,0.3-0.1,0.3-0.3s-0.1-0.3-0.3-0.3h-0.6c-0.2,0-0.3,0.1-0.3,0.3V43h-1.2V39.6z M33.9,41.4c0,0.9-0.7,1.6-1.6,1.6h-0.6
			c-0.9,0-1.6-0.7-1.6-1.6V38h1.2v3.4c0,0.2,0.1,0.3,0.3,0.3h0.6c0.2,0,0.3-0.1,0.3-0.3V38h1.2V41.4z"/>
	</g>
</g>
</svg>
