<?xml version="1.0" encoding="utf-8"?>
<!-- Generator: Adobe Illustrator 25.2.1, SVG Export Plug-In . SVG Version: 6.00 Build 0)  -->
<svg version="1.1" id="Layer_1" xmlns="http://www.w3.org/2000/svg" xmlns:xlink="http://www.w3.org/1999/xlink" x="0px" y="0px" viewBox="0 0 136 74" style="enable-background:new 0 0 136 74;" xml:space="preserve">
	<style>
		.abu-abu {
			fill: #666;
		}

		.biru {
			fill: #4285F4;
			animation: berubah-warna 2s linear infinite;
		}

		.hijau {
			fill: #34A853;
			animation: berubah-warna-2 2s linear infinite;
		}

		@keyframes berubah-warna {
			from {
				fill: #4285f4;
			}

			40% {
				fill: #4285f4;
			}
	
			50% {
				fill: #666;
			}
	
			90% {
				fill: #666;
			}

			to {
				fill: #4285f4;
			}
		}

		@keyframes berubah-warna-2 {
			from {
				fill: #666;
			}

			40% {
				fill: #666;
			}
	
			50% {
				fill: #34A853;
			}
	
			90% {
				fill: #34A853;
			}
	
			to {
				fill: #666;
			}
		}
	</style>
	<g class="abu-abu">
		<path d="M38.5,0H40v3.4h0.1L43,0h1.8v0.1l-2.9,3.3l3.2,4.5V8h-1.8l-2.4-3.4L40,5.7V8h-1.5V0z" />
		<path
			d="M50.5,0h1.7l3,8h-1.7l-0.7-1.9h-3.1L49.2,8h-1.7L50.5,0z M52.5,4.7l-0.7-2l-0.3-1h-0.1l-0.3,1l-0.7,2H52.5z" />
		<path d="M58.4,0h3.1c0.3,0,0.7,0.1,1,0.2c0.3,0.1,0.6,0.3,0.8,0.4c0.2,0.2,0.4,0.4,0.5,0.7C64,1.5,64,1.8,64,2.1
		c0,0.4-0.1,0.8-0.3,1.1c-0.2,0.3-0.5,0.5-0.8,0.7v0.1c0.4,0.1,0.7,0.4,1,0.7c0.2,0.3,0.4,0.7,0.4,1.2c0,0.3-0.1,0.7-0.2,0.9
		C64,7,63.8,7.2,63.5,7.4c-0.2,0.2-0.5,0.3-0.8,0.4C62.4,7.9,62,8,61.7,8h-3.2V0z M61.5,3.3c0.4,0,0.6-0.1,0.8-0.3
		c0.2-0.2,0.3-0.4,0.3-0.7c0-0.3-0.1-0.5-0.3-0.7c-0.2-0.2-0.4-0.3-0.8-0.3h-1.6v1.9H61.5z M61.6,6.6c0.4,0,0.7-0.1,0.9-0.3
		s0.3-0.4,0.3-0.7c0-0.3-0.1-0.5-0.3-0.7c-0.2-0.2-0.5-0.3-0.9-0.3h-1.6v2.1H61.6z" />
		<path d="M67.7,0h1.5v8h-1.5V0z" />
		<path d="M73.1,0h1.8L78,5.4h0.1L78,3.8V0h1.5v8h-1.6l-3.4-5.7h-0.1l0.1,1.5V8h-1.5V0z" />
		<path d="M84.9,1.4v1.9h3.2v1.4h-3.2v1.9h3.6V8h-5.1V0h5.1v1.4H84.9z" />
		<path d="M93.8,8V1.4h-2.2V0h6v1.4h-2.2V8H93.8z" />
		<path d="M32.9,73.8v-1.3c0.4-0.4,0.8-0.8,1.2-1.2c0.2-0.2,0.3-0.3,0.5-0.5c0.2-0.2,0.3-0.3,0.4-0.4
		c0.1-0.1,0.3-0.3,0.4-0.4s0.2-0.2,0.3-0.3c0.1-0.1,0.2-0.3,0.3-0.4c0.1-0.1,0.2-0.2,0.2-0.3c0.1-0.1,0.1-0.2,0.1-0.3
		c0-0.1,0-0.2,0-0.3c0-0.2-0.1-0.5-0.3-0.6c-0.2-0.2-0.4-0.3-0.8-0.3c-0.3,0-0.6,0.1-0.8,0.3s-0.3,0.4-0.4,0.6l-1.3-0.5
		c0.1-0.2,0.2-0.4,0.3-0.6c0.1-0.2,0.3-0.4,0.5-0.6c0.2-0.2,0.4-0.3,0.7-0.4c0.3-0.1,0.6-0.2,0.9-0.2c0.4,0,0.7,0.1,1,0.2
		s0.6,0.3,0.8,0.5c0.2,0.2,0.4,0.4,0.5,0.7c0.1,0.3,0.2,0.6,0.2,0.9c0,0.5-0.1,0.9-0.3,1.3s-0.5,0.8-0.8,1.1l-0.9,0.9
		c-0.2,0.2-0.5,0.5-0.8,0.8l0,0.1h3v1.3H32.9z" />
		<path d="M44.2,74c-0.5,0-0.9-0.1-1.3-0.3c-0.4-0.2-0.7-0.5-1-0.8c-0.3-0.3-0.5-0.8-0.6-1.2c-0.1-0.5-0.2-1-0.2-1.5
		c0-0.6,0.1-1.1,0.2-1.5c0.1-0.5,0.4-0.9,0.6-1.2c0.3-0.3,0.6-0.6,1-0.8c0.4-0.2,0.8-0.3,1.3-0.3c0.5,0,0.9,0.1,1.3,0.3
		c0.4,0.2,0.7,0.5,1,0.8c0.3,0.4,0.5,0.8,0.6,1.2c0.1,0.5,0.2,1,0.2,1.5c0,0.6-0.1,1.1-0.2,1.5c-0.1,0.5-0.4,0.9-0.6,1.2
		c-0.3,0.3-0.6,0.6-1,0.8C45.1,73.9,44.7,74,44.2,74z M44.2,72.6c0.3,0,0.5-0.1,0.7-0.2c0.2-0.1,0.4-0.3,0.5-0.5
		c0.1-0.2,0.3-0.5,0.3-0.8c0.1-0.3,0.1-0.7,0.1-1c0-0.4,0-0.7-0.1-1c-0.1-0.3-0.2-0.6-0.3-0.8c-0.1-0.2-0.3-0.4-0.5-0.5
		c-0.2-0.1-0.4-0.2-0.7-0.2c-0.3,0-0.5,0.1-0.7,0.2c-0.2,0.1-0.4,0.3-0.5,0.5c-0.1,0.2-0.3,0.5-0.3,0.8c-0.1,0.3-0.1,0.7-0.1,1
		c0,0.4,0,0.7,0.1,1c0.1,0.3,0.2,0.6,0.3,0.8s0.3,0.4,0.5,0.5C43.7,72.6,43.9,72.6,44.2,72.6z" />
		<path d="M50.4,73.8v-1.3c0.4-0.4,0.8-0.8,1.2-1.2c0.2-0.2,0.3-0.3,0.5-0.5c0.2-0.2,0.3-0.3,0.4-0.4
		c0.1-0.1,0.3-0.3,0.4-0.4s0.2-0.2,0.3-0.3c0.1-0.1,0.2-0.3,0.3-0.4c0.1-0.1,0.2-0.2,0.2-0.3c0.1-0.1,0.1-0.2,0.1-0.3
		c0-0.1,0-0.2,0-0.3c0-0.2-0.1-0.5-0.3-0.6c-0.2-0.2-0.4-0.3-0.8-0.3c-0.3,0-0.6,0.1-0.8,0.3s-0.3,0.4-0.4,0.6l-1.3-0.5
		c0.1-0.2,0.2-0.4,0.3-0.6c0.1-0.2,0.3-0.4,0.5-0.6c0.2-0.2,0.4-0.3,0.7-0.4c0.3-0.1,0.6-0.2,0.9-0.2c0.4,0,0.7,0.1,1,0.2
		c0.3,0.1,0.6,0.3,0.8,0.5c0.2,0.2,0.4,0.4,0.5,0.7c0.1,0.3,0.2,0.6,0.2,0.9c0,0.5-0.1,0.9-0.3,1.3s-0.5,0.8-0.8,1.1l-0.9,0.9
		c-0.2,0.2-0.5,0.5-0.8,0.8l0,0.1h3v1.3H50.4z" />
		<path d="M60.2,73.8V68l-1.3,0.6l-0.5-1.2l2.2-1h1.1v7.5H60.2z" />
		<path d="M65,73.8l3.2-7.8h1.4l-3.2,7.8H65z" />
		<path d="M72.6,73.8v-1.3c0.4-0.4,0.8-0.8,1.2-1.2c0.2-0.2,0.3-0.3,0.5-0.5c0.2-0.2,0.3-0.3,0.4-0.4
		c0.1-0.1,0.3-0.3,0.4-0.4c0.1-0.1,0.2-0.2,0.3-0.3c0.1-0.1,0.2-0.3,0.3-0.4c0.1-0.1,0.2-0.2,0.2-0.3c0.1-0.1,0.1-0.2,0.1-0.3
		c0-0.1,0-0.2,0-0.3c0-0.2-0.1-0.5-0.3-0.6c-0.2-0.2-0.4-0.3-0.8-0.3c-0.3,0-0.6,0.1-0.8,0.3c-0.2,0.2-0.3,0.4-0.4,0.6l-1.3-0.5
		c0.1-0.2,0.2-0.4,0.3-0.6c0.1-0.2,0.3-0.4,0.5-0.6c0.2-0.2,0.4-0.3,0.7-0.4c0.3-0.1,0.6-0.2,0.9-0.2c0.4,0,0.7,0.1,1,0.2
		c0.3,0.1,0.6,0.3,0.8,0.5c0.2,0.2,0.4,0.4,0.5,0.7c0.1,0.3,0.2,0.6,0.2,0.9c0,0.5-0.1,0.9-0.3,1.3c-0.2,0.4-0.5,0.8-0.8,1.1
		l-0.9,0.9c-0.2,0.2-0.5,0.5-0.8,0.8l0,0.1h3v1.3H72.6z" />
		<path d="M83.9,74c-0.5,0-0.9-0.1-1.3-0.3c-0.4-0.2-0.7-0.5-1-0.8c-0.3-0.3-0.5-0.8-0.6-1.2c-0.1-0.5-0.2-1-0.2-1.5
		c0-0.6,0.1-1.1,0.2-1.5c0.1-0.5,0.4-0.9,0.6-1.2c0.3-0.3,0.6-0.6,1-0.8c0.4-0.2,0.8-0.3,1.3-0.3c0.5,0,0.9,0.1,1.3,0.3
		c0.4,0.2,0.7,0.5,1,0.8c0.3,0.4,0.5,0.8,0.6,1.2c0.1,0.5,0.2,1,0.2,1.5c0,0.6-0.1,1.1-0.2,1.5c-0.1,0.5-0.4,0.9-0.6,1.2
		c-0.3,0.3-0.6,0.6-1,0.8C84.8,73.9,84.3,74,83.9,74z M83.9,72.6c0.3,0,0.5-0.1,0.7-0.2c0.2-0.1,0.4-0.3,0.5-0.5
		c0.1-0.2,0.3-0.5,0.3-0.8c0.1-0.3,0.1-0.7,0.1-1c0-0.4,0-0.7-0.1-1c-0.1-0.3-0.2-0.6-0.3-0.8c-0.1-0.2-0.3-0.4-0.5-0.5
		c-0.2-0.1-0.4-0.2-0.7-0.2c-0.3,0-0.5,0.1-0.7,0.2c-0.2,0.1-0.4,0.3-0.5,0.5c-0.1,0.2-0.3,0.5-0.3,0.8c-0.1,0.3-0.1,0.7-0.1,1
		c0,0.4,0,0.7,0.1,1c0.1,0.3,0.2,0.6,0.3,0.8s0.3,0.4,0.5,0.5C83.3,72.6,83.6,72.6,83.9,72.6z" />
		<path d="M90,73.8v-1.3c0.4-0.4,0.8-0.8,1.2-1.2c0.2-0.2,0.3-0.3,0.5-0.5c0.2-0.2,0.3-0.3,0.4-0.4
		c0.1-0.1,0.3-0.3,0.4-0.4c0.1-0.1,0.2-0.2,0.3-0.3c0.1-0.1,0.2-0.3,0.3-0.4c0.1-0.1,0.2-0.2,0.2-0.3c0.1-0.1,0.1-0.2,0.1-0.3
		c0-0.1,0-0.2,0-0.3c0-0.2-0.1-0.5-0.3-0.6c-0.2-0.2-0.4-0.3-0.8-0.3c-0.3,0-0.6,0.1-0.8,0.3c-0.2,0.2-0.3,0.4-0.4,0.6L90,67.9
		c0.1-0.2,0.2-0.4,0.3-0.6c0.1-0.2,0.3-0.4,0.5-0.6c0.2-0.2,0.4-0.3,0.7-0.4c0.3-0.1,0.6-0.2,0.9-0.2c0.4,0,0.7,0.1,1,0.2
		s0.6,0.3,0.8,0.5c0.2,0.2,0.4,0.4,0.5,0.7c0.1,0.3,0.2,0.6,0.2,0.9c0,0.5-0.1,0.9-0.3,1.3s-0.5,0.8-0.8,1.1l-0.9,0.9
		c-0.2,0.2-0.5,0.5-0.8,0.8l0,0.1h3v1.3H90z" />
		<path d="M98.2,73.8v-1.3c0.4-0.4,0.8-0.8,1.2-1.2c0.2-0.2,0.3-0.3,0.5-0.5c0.2-0.2,0.3-0.3,0.4-0.4
		c0.1-0.1,0.3-0.3,0.4-0.4c0.1-0.1,0.2-0.2,0.3-0.3c0.1-0.1,0.2-0.3,0.3-0.4c0.1-0.1,0.2-0.2,0.2-0.3c0.1-0.1,0.1-0.2,0.1-0.3
		c0-0.1,0-0.2,0-0.3c0-0.2-0.1-0.5-0.3-0.6c-0.2-0.2-0.4-0.3-0.8-0.3c-0.3,0-0.6,0.1-0.8,0.3c-0.2,0.2-0.3,0.4-0.4,0.6l-1.3-0.5
		c0.1-0.2,0.2-0.4,0.3-0.6c0.1-0.2,0.3-0.4,0.5-0.6c0.2-0.2,0.4-0.3,0.7-0.4c0.3-0.1,0.6-0.2,0.9-0.2c0.4,0,0.7,0.1,1,0.2
		s0.6,0.3,0.8,0.5c0.2,0.2,0.4,0.4,0.5,0.7c0.1,0.3,0.2,0.6,0.2,0.9c0,0.5-0.1,0.9-0.3,1.3s-0.5,0.8-0.8,1.1l-0.9,0.9
		c-0.2,0.2-0.5,0.5-0.8,0.8l0,0.1h3v1.3H98.2z" />
	</g>
	<g class="biru">
		<path d="M23.2,46.2H24c0-4.6-3.7-8.2-8.2-8.2v0.8H8.2V38C3.7,38,0,41.7,0,46.2h0.8v7.5H0C0,58.3,3.7,62,8.2,62v-0.8
		h7.5V62c4.6,0,8.2-3.7,8.2-8.2h-0.8V46.2z M21.8,53.8c0,3.3-2.7,6-6,6H8.2c-3.3,0-6-2.7-6-6v-7.5c0-3.3,2.7-6,6-6h7.5
		c3.3,0,6,2.7,6,6V53.8z" />
		<path d="M26,62L26,62c0-1.1,0.9-2,2-2h106c1.1,0,2,0.9,2,2l0,0H26z" />
		<path d="M61,16h-8l-4,4v16l4-4v-4h8v8l4-4V20L61,16z M61,24h-8v-2l2-2h4l2,2V24z" />
		<path
			d="M81,16h-8l-4,4v16l4-4v-4h6l2,2v6l4-4v-4l-2-2l2-2v-4L81,16z M79,24h-6v-2l2-2h4l2,2L79,24z" />
		<polygon points="89,20 89,28 97,36 105,28 105,16 101,20 101,26 97,30 93,26 93,16 	" />
		<polygon points="109,20 113,16 113,32 109,36 	" />
		<path d="M133,16h-12l-4,4v4l4,4h6l2,2l-2,2h-6l-4,4h12l4-4v-4l-4-4h-6l-2-2l2-2h6L133,16z" />
		<polygon points="33,20 37,16 45,16 45,32 41,36 33,36 29,32 39,32 41,30 41,20 	" />
		<path d="M0,12L0,12c0,1.7,1.3,3,3,3h18c1.7,0,3-1.3,3-3H0z" />
		<path d="M0,18l12,12l12-12v0.3c0,2.7-1.1,5.3-3,7.2l0,0l-9,9l-9-9l0,0c-1.9-1.9-3-4.5-3-7.2V18z" />
		<polygon points="9.8,57.5 9.8,53 13.5,57.5 	" />
		<polygon points="10.5,42.5 14.2,47 14.2,42.5 	" />
	</g>
	<g class="hijau">
		<path d="M4.5,46.2v7.5c0,2.1,1.6,3.8,3.8,3.8l0,0v-9l7.5,9l0,0c2.1,0,3.8-1.7,3.8-3.8v-7.5c0-2.1-1.7-3.8-3.8-3.8l0,0
		v9l-7.5-9l0,0C6.1,42.5,4.5,44.2,4.5,46.2z" />
		<path d="M26,12L26,12c0,1.1,0.9,2,2,2h106c1.1,0,2-0.9,2-2l0,0H26z" />
		<path d="M44,38c-2.2,0-4,1.8-4,4l0,0v12l0,0c0,2.2,1.8,4,4,4l0,0h4l0,0c2.2,0,4-1.8,4-4l0,0h-8v-4h6v-4h-6v-4h8l0,0
		c0-2.2-1.8-4-4-4l0,0H44z" />
		<path d="M62,38h-4c-2.2,0-4,1.8-4,4v12c0,2.2,1.8,4,4,4h4c2.2,0,4-1.8,4-4V42C66,39.8,64.2,38,62,38z M62,54h-4V42h4
		V54z" />
		<path d="M76,38h-4c-2.2,0-4,1.8-4,4v12c0,2.2,1.8,4,4,4v-8h4c2.2,0,4-1.8,4-4v-4C80,39.8,78.2,38,76,38z M76,46h-4v-4
		h4V46z" />
		<path d="M86,38c-2.2,0-4,1.8-4,4l0,0v12l0,0c0,2.2,1.8,4,4,4l0,0v-8h4v8l0,0c2.2,0,4-1.8,4-4l0,0V42l0,0
		c0-2.2-1.8-4-4-4l0,0v8h-4V38L86,38z" />
		<path d="M100,38c-2.2,0-4,1.8-4,4l0,0v4l0,0c0,2.2,1.8,4,4,4l0,0v8l0,0c2.2,0,4-1.8,4-4l0,0v-4l0,0c2.2,0,4-1.8,4-4
		l0,0v-4l0,0c0-2.2-1.8-4-4-4l0,0v8h-4V38L100,38z" />
		<path
			d="M110,42L110,42c0-2.2,1.8-4,4-4l0,0h4l0,0c2.2,0,4,1.8,4,4l0,0h-4v12l0,0c0,2.2-1.8,4-4,4l0,0V42H110z" />
		<path d="M128,38c-2.2,0-4,1.8-4,4l0,0v12l0,0c0,2.2,1.8,4,4,4l0,0h4l0,0c2.2,0,4-1.8,4-4l0,0h-8v-4h6v-4h-6v-4h8l0,0
		c0-2.2-1.8-4-4-4l0,0H128z" />
		<path d="M26,54V42c0-2.2,1.8-4,4-4h0l4,10V38h0c2.2,0,4,1.8,4,4v12c0,2.2-1.8,4-4,4h0l-4-10v10h0
		C27.8,58,26,56.2,26,54z" />
		<polygon points="4.5,18 12,25.5 19.5,18 	" />
		<path d="M0,27l9,9l0,0C4,36,0,32,0,27z" />
		<path d="M15,36l9-9l0,0C24,32,20,36,15,36z" />
	</g>
</svg>